HIERARCHY
ROOT Hips
{
	OFFSET -0.179506 -22.333345 2.821913
	CHANNELS 6 Xposition Yposition Zposition Zrotation Yrotation Xrotation 
	JOINT LeftUpLeg
	{
		OFFSET 6.951974 -9.140623 -0.681533
		CHANNELS 3 Zrotation Yrotation Xrotation
		JOINT LeftLeg
		{
			OFFSET 3.427654 -37.519855 -0.449580
			CHANNELS 3 Zrotation Yrotation Xrotation
			JOINT LeftFoot
			{
				OFFSET -1.359570 -39.796059 -4.369333
				CHANNELS 3 Zrotation Yrotation Xrotation
				JOINT LeftToe
				{
					OFFSET 2.635814 -5.579078 11.928840
					CHANNELS 3 Zrotation Yrotation Xrotation
					End Site
					{
						OFFSET 0.000000 0.000000 0.000000
					}
				}
			}
		}
	}
	JOINT RightUpLeg
	{
		OFFSET -6.767048 -9.052170 -0.431982
		CHANNELS 3 Zrotation Yrotation Xrotation
		JOINT RightLeg
		{
			OFFSET -3.829005 -38.256897 -0.885003
			CHANNELS 3 Zrotation Yrotation Xrotation
			JOINT RightFoot
			{
				OFFSET 1.577377 -39.841461 -4.231180
				CHANNELS 3 Zrotation Yrotation Xrotation
				JOINT RightToe
				{
					OFFSET -2.537174 -4.814398 12.334795
					CHANNELS 3 Zrotation Yrotation Xrotation
					End Site
					{
						OFFSET 0.000000 0.000000 0.000000
					}
				}
			}
		}
	}
	JOINT Spine
	{
		OFFSET -0.253288 10.896323 -2.669631
		CHANNELS 3 Zrotation Yrotation Xrotation
		JOINT Spine1
		{
			OFFSET 0.548704 13.518043 0.109247
			CHANNELS 3 Zrotation Yrotation Xrotation
			JOINT Spine2
			{
				OFFSET 0.145701 5.292222 2.542457
				CHANNELS 3 Zrotation Yrotation Xrotation
				JOINT Neck
				{
					OFFSET -0.277840 21.387037 -4.285703
					CHANNELS 3 Zrotation Yrotation Xrotation
					JOINT Head
					{
						OFFSET 0.515184 6.496960 5.134897
						CHANNELS 3 Zrotation Yrotation Xrotation
						End Site
						{
							OFFSET 0.000000 0.000000 0.000000
						}
					}
				}
				JOINT LeftShoulder
				{
					OFFSET 7.884473 12.174932 -3.408961
					CHANNELS 3 Zrotation Yrotation Xrotation
					JOINT LeftArm
					{
						OFFSET 9.097692 3.046888 -0.886815
						CHANNELS 3 Zrotation Yrotation Xrotation
						JOINT LeftForeArm
						{
							OFFSET 25.961220 -1.277207 -2.745643
							CHANNELS 3 Zrotation Yrotation Xrotation
							JOINT LeftHand
							{
								OFFSET 24.923361 0.898606 -0.117091
								CHANNELS 3 Zrotation Yrotation Xrotation
								End Site
								{
									OFFSET 0.000000 0.000000 0.000000
								}
							}
						}
					}
				}
				JOINT RightShoulder
				{
					OFFSET -8.175920 11.883285 -3.861528
					CHANNELS 3 Zrotation Yrotation Xrotation
					JOINT RightArm
					{
						OFFSET -9.601238 3.255117 -0.914307
						CHANNELS 3 Zrotation Yrotation Xrotation
						JOINT RightForeArm
						{
							OFFSET -25.374195 -1.332924 -2.140099
							CHANNELS 3 Zrotation Yrotation Xrotation
							JOINT RightHand
							{
								OFFSET -25.529810 0.777228 -0.555919
								CHANNELS 3 Zrotation Yrotation Xrotation
								End Site
								{
									OFFSET 0.000000 0.000000 0.000000
								}
							}
						}
					}
				}
			}
		}
	}
}
MOTION
Frames: 10
Frame Time: 0.033333
-1.944256 -33.120323 83.903290 -111.569486 6.759692 81.255741 24.524195 8.284898 -12.830166 -9.766647 2.141523 53.079885 0.463968 12.362174 -39.642801 nan nan nan -23.823097 -14.786141 -9.676425 1.485845 -14.473506 26.268862 6.204076 -6.467215 -4.653745 nan nan nan -4.111933 6.589764 7.179429 13.422798 -3.244796 16.307887 3.660213 0.377693 -5.763266 11.178279 -15.493276 14.076332 4.934131 -24.055900 5.691435 -12.654299 8.487805 7.146750 -46.295343 -29.393427 19.478138 179.635637 -60.895602 -168.422125 -6.800999 -28.571320 -19.278297 23.616183 -2.675548 -1.733595 33.957984 3.247656 -0.062269 -28.693148 30.124060 -17.083732 13.342919 8.163155 -0.281235 
-1.950370 -33.084808 83.903267 -111.471793 6.750918 81.246164 24.549611 8.271434 -12.822113 -9.860999 2.082264 53.052583 0.435499 12.345641 -39.716638 nan nan nan -23.838567 -14.781894 -9.711230 1.445384 -14.399461 26.474034 6.215745 -6.535938 -4.723665 nan nan nan -4.128404 6.583740 7.294725 13.431400 -3.267630 16.208075 3.670116 0.316021 -5.766294 11.148669 -15.605339 13.974487 4.986201 -24.007514 5.625795 -12.655774 8.335894 7.203628 -46.248967 -29.396662 19.496313 179.861884 -61.004075 -168.578058 -6.515434 -28.500475 -19.575838 23.625209 -2.699593 -1.757399 33.928456 3.129011 -0.161663 -28.848108 30.581213 -17.086977 12.875303 8.095365 -0.192053 
-1.936880 -33.046764 83.913864 -111.429557 6.728573 81.227066 24.581836 8.254694 -12.745276 -9.948648 2.195693 52.929641 0.424651 12.461852 -39.731747 nan nan nan -23.842185 -14.640437 -9.818894 1.377606 -14.391069 26.747467 6.294095 -6.671973 -4.796607 nan nan nan -4.160630 6.559106 7.474242 13.436769 -3.212181 15.956865 3.679605 0.250977 -5.655008 11.141358 -15.766762 13.904840 4.984105 -23.923053 5.551379 -12.652435 8.205097 7.169365 -46.229728 -29.390437 19.585417 -179.837466 -61.170562 -168.797803 -6.187997 -28.318194 -19.979067 23.548703 -2.754559 -1.828713 34.074618 3.012161 -0.208741 -29.079495 31.186187 -17.412293 12.292482 7.919769 -0.720840 
-1.912181 -33.023083 83.919464 -111.365595 6.722835 81.261780 24.617217 8.217604 -12.771764 -10.024299 2.178820 52.870154 0.413495 12.447382 -39.666249 nan nan nan -23.861893 -14.462988 -9.973180 1.327502 -14.487253 27.047658 6.357869 -6.745891 -4.753651 nan nan nan -4.214773 6.456871 7.594664 13.426442 -3.213847 15.443463 3.701754 0.294443 -5.211094 11.124154 -15.858277 13.854528 5.067582 -23.880706 5.510956 -12.626062 7.977146 7.096988 -46.229261 -29.401514 19.639335 -179.574669 -61.406998 -168.967155 -5.984037 -28.263665 -20.084717 23.581869 -2.756774 -2.086637 34.074506 2.831042 -0.350794 -29.360172 31.848616 -17.548234 12.034955 7.851674 -0.568515 
-1.872902 -33.017479 83.921272 -111.263577 6.728779 81.339395 24.641161 8.154672 -12.910070 -10.089778 2.027546 52.849543 0.397242 12.280920 -39.608485 nan nan nan -23.905734 -14.290910 -10.218883 1.277425 -14.575507 27.461629 6.432185 -6.708057 -4.734630 nan nan nan -4.265036 6.358731 7.767068 13.423192 -3.193521 14.906577 3.741248 0.329869 -4.854620 11.124283 -15.948217 13.770371 5.113169 -23.891100 5.538235 -12.557982 7.791211 7.014058 -46.407212 -29.467148 19.833677 -179.426651 -61.650260 -169.129759 -5.989429 -28.165890 -20.027913 23.713156 -2.805008 -2.342407 33.897020 2.649158 -0.494380 -29.697489 32.594652 -17.826064 12.000401 7.997480 -0.152419 
-1.858048 -32.980576 83.938438 -111.196202 6.739758 81.355508 24.690757 8.155533 -12.934961 -10.155256 1.907635 52.769611 0.447360 12.273579 -39.506407 nan nan nan -23.956123 -14.179946 -10.434566 1.311535 -14.529510 27.910911 6.517576 -6.670226 -4.756676 nan nan nan -4.325048 6.363392 7.844997 13.476225 -3.189243 14.748844 3.806366 0.257341 -4.787709 11.126595 -15.990006 13.764287 5.040023 -23.931144 5.513455 -12.499684 7.615413 7.014976 -46.633630 -29.545439 20.022965 -179.379497 -61.902375 -169.263124 -6.074449 -27.812860 -20.535852 23.674702 -2.860696 -2.475714 34.020530 2.530555 -0.379785 -30.322392 33.429833 -18.643356 11.323443 7.770648 -1.090569 
-1.844633 -32.920063 83.971931 -111.118131 6.826740 81.350520 24.827975 8.146524 -12.917799 -10.173786 1.831270 52.691216 0.531702 12.287526 -39.306500 nan nan nan -23.944449 -14.061422 -10.640329 1.380485 -14.425823 28.413151 6.601694 -6.567293 -4.712564 nan nan nan -4.343450 6.282858 7.907454 13.562706 -3.248978 14.603800 3.888066 0.253241 -4.668004 10.967677 -16.025552 13.832983 4.977418 -23.865630 5.525878 -12.565481 7.400371 6.979645 -46.833100 -29.698890 20.016033 -179.265627 -62.231543 -169.251193 -6.585221 -27.556498 -20.594071 23.719447 -2.892344 -2.563487 33.878035 2.517370 -0.610610 -30.916549 34.362159 -18.810814 11.458776 7.368597 -0.577155 
-1.827639 -32.881824 84.022057 -111.032452 6.935657 81.274160 24.953786 8.101273 -12.852432 -10.158279 1.745980 52.631600 0.616717 12.287627 -39.055424 nan nan nan -24.007773 -13.815633 -10.836383 1.482678 -14.390574 29.080867 6.804329 -6.405865 -4.645536 nan nan nan -4.350390 6.045470 8.106383 13.627606 -3.305543 14.434310 3.944078 0.379017 -4.483437 10.820959 -15.965317 13.847341 4.977149 -23.869135 5.501950 -12.629229 7.238710 6.802498 -47.076087 -29.973070 19.999477 -178.896867 -62.691042 -169.388708 -6.922513 -27.402575 -20.270000 23.677092 -2.866740 -2.623245 33.838314 2.562575 -1.002663 -31.327704 35.314983 -19.381214 11.261742 7.350399 -0.559945 
-1.808503 -32.811386 84.081024 -111.045714 7.026516 81.135548 25.101635 8.081966 -12.650672 -10.119659 1.740141 52.480531 0.614858 12.359348 -38.930125 nan nan nan -24.042855 -13.510042 -11.102955 1.507355 -14.232512 29.907445 6.950511 -6.123783 -4.666707 nan nan nan -4.346626 5.905834 8.397345 13.694465 -3.277599 14.333126 3.946451 0.407547 -4.468636 10.695148 -15.952166 13.924720 4.981474 -23.883150 5.501188 -12.612880 7.142055 6.770593 -47.400713 -30.340604 20.152945 -178.664235 -63.129197 -169.389142 -6.994213 -27.022419 -20.134057 23.697230 -2.933484 -2.643450 33.878502 2.810615 -1.276070 -31.912117 36.116674 -19.978798 10.953079 7.250737 -0.692613 
-1.791934 -32.706741 84.121765 -111.124972 7.072002 81.047681 25.253789 8.114088 -12.426585 -10.064077 1.921481 52.269007 0.592245 12.550132 -38.884298 nan nan nan -24.137331 -13.201244 -11.500336 1.605682 -14.015287 30.836995 7.009525 -5.750679 -4.753235 nan nan nan -4.396657 5.850315 8.591122 13.762931 -3.199309 14.315683 3.935326 0.302023 -4.540801 10.654278 -15.924307 13.926362 4.875257 -23.897498 5.654165 -12.531123 7.117154 6.765977 -47.750377 -30.778986 20.373225 -178.491104 -63.544623 -169.266725 -7.089999 -26.643567 -20.185221 23.796903 -3.043534 -2.601629 33.936973 3.213858 -1.379872 -32.858869 36.910021 -20.768815 10.499219 7.135094 -0.827807 
